<svg xmlns="http://www.w3.org/2000/svg" width="29.409" height="24.395" viewBox="0 0 29.409 24.395"><path d="M29.409,6.236c-.14,1.109-1.744,2.217-2.718,3.06C27.647,23.45,11.659,32.274,0,25.1c3.266.021,6.895-.876,8.839-2.718-2.829-.457-4.83-1.746-5.609-4.248.828-.087,1.989.172,2.551-.171-2.585-.985-4.635-2.507-4.76-5.953.923.1,1.4.638,2.548.51C1.9,11.453-.013,7.376,1.7,4.363a18.135,18.135,0,0,0,12.749,6.459C12.979,4.577,21.266.7,24.991,5.215A21.632,21.632,0,0,0,28.9,3.857a8.2,8.2,0,0,1-2.551,3.231,9.337,9.337,0,0,0,3.06-.852" transform="translate(0 -3.256)" fill="#fff"/></svg>