<svg xmlns="http://www.w3.org/2000/svg" width="28.148" height="28.629" viewBox="0 0 28.148 28.629"><g transform="translate(0 0)"><path d="M20.063,0H8.1A8.085,8.085,0,0,0,0,8.1V20.533a8.085,8.085,0,0,0,8.1,8.1H20.063a8.085,8.085,0,0,0,8.085-8.1V8.1A8.085,8.085,0,0,0,20.063,0ZM2.886,8.1A5.222,5.222,0,0,1,8.1,2.874H20.063A5.222,5.222,0,0,1,25.274,8.1V20.533a5.222,5.222,0,0,1-5.211,5.222H8.1a5.222,5.222,0,0,1-5.222-5.222Z" transform="translate(0 0)" fill="rgba(125,125,125,0.78)"/><path d="M13.225,20.81A7.375,7.375,0,1,0,5.85,13.435a7.375,7.375,0,0,0,7.375,7.375Zm0-12.448a5.073,5.073,0,1,1-5.073,5.073,5.073,5.073,0,0,1,5.073-5.073Z" transform="translate(0.849 0.88)" fill="rgba(125,125,125,0.78)"/><circle cx="1.649" cy="1.649" r="1.649" transform="translate(20.018 5.073)" fill="rgba(125,125,125,0.78)"/></g></svg>