<svg xmlns="http://www.w3.org/2000/svg" width="24.915" height="24.921" viewBox="0 0 24.915 24.921"><g transform="translate(-95.002 -3.62)"><path d="M81.018,5.158a1.27,1.27,0,1,0,1.266,1.27,1.274,1.274,0,0,0-1.266-1.27" transform="translate(33.903 2.193)" fill="#fff"/><path d="M77.45,6.468a6.862,6.862,0,1,0,6.863,6.861A6.87,6.87,0,0,0,77.45,6.468m0,11.189a4.327,4.327,0,1,1,4.324-4.328,4.333,4.333,0,0,1-4.324,4.328" transform="translate(30.009 2.75)" fill="#fff"/><path d="M84.2,2.54H74.031a7.381,7.381,0,0,0-7.369,7.375V20.09a7.381,7.381,0,0,0,7.374,7.371H84.207a7.382,7.382,0,0,0,7.371-7.375V9.911A7.382,7.382,0,0,0,84.2,2.54m4.84,7.371V20.086a4.841,4.841,0,0,1-4.835,4.835H74.036A4.837,4.837,0,0,1,69.2,20.09V9.915a4.838,4.838,0,0,1,4.834-4.834H84.2a4.837,4.837,0,0,1,4.84,4.83" transform="translate(28.34 1.08)" fill="#fff"/></g></svg>